<svg version="1.1" id="Capa_1" xmlns="http://www.w3.org/2000/svg" xmlns:xlink="http://www.w3.org/1999/xlink" x="0px" y="0px" viewBox="0 0 512 512" style="enable-background:new 0 0 512 512;" xml:space="preserve">
<g>
	<g>
		<path style="fill:#EAF9FA;" d="M308.838,144.522h-73.215c-7.667,0-13.882-6.215-13.882-13.882V36.87&#10;&#9;&#9;&#9;c0-7.667,6.215-13.882,13.882-13.882h58.361l28.737,38.849v68.802C322.72,138.307,316.505,144.522,308.838,144.522z"/>
		<path style="fill:#DCF5F8;" d="M293.983,22.988h-25.062l25.822,34.908c1.893,2.56,2.915,5.659,2.915,8.843v63.9&#10;&#9;&#9;&#9;c0,7.667-6.215,13.882-13.882,13.882h25.062c7.667,0,13.882-6.215,13.882-13.882V61.837L293.983,22.988z"/>
		<path style="fill:#DCF5F8;" d="M276.375,172.522h-73.215c-7.667,0-13.882-6.215-13.882-13.882V64.871&#10;&#9;&#9;&#9;c0-7.667,6.215-13.882,13.882-13.882h58.361l28.737,38.849v68.802C290.257,166.307,284.042,172.522,276.375,172.522z"/>
		<path style="fill:#D4F2F6;" d="M261.52,50.989h-26.065l25.822,34.908c1.893,2.56,2.915,5.659,2.915,8.843v63.9&#10;&#9;&#9;&#9;c0,7.667-6.215,13.882-13.882,13.882h26.065c7.667,0,13.882-6.215,13.882-13.882V89.838L261.52,50.989z"/>
		<g>
			<path style="fill:#6BD9E7;" d="M129.812,489.011H20.294c-7.066,0-12.794-5.728-12.794-12.794V349.335&#10;&#9;&#9;&#9;&#9;c0-6.975,3.6-13.457,9.522-17.143l58.031-36.121l58.031,36.121c5.922,3.686,9.522,10.167,9.522,17.143v126.882&#10;&#9;&#9;&#9;&#9;C142.607,483.282,136.879,489.011,129.812,489.011z"/>
			<path style="fill:#2ED1E2;" d="M142.61,349.339v126.88c0,7.06-5.73,12.79-12.8,12.79h-26.06c7.06,0,12.79-5.73,12.79-12.79&#10;&#9;&#9;&#9;&#9;v-126.88c0-6.98-3.6-13.46-9.52-17.15l-45-28.01l13.03-8.11l58.03,36.12C139.01,335.879,142.61,342.359,142.61,349.339z"/>
			<path style="fill:#6BD9E7;" d="M310.759,489.011H201.241c-7.066,0-12.794-5.728-12.794-12.794V350.352&#10;&#9;&#9;&#9;&#9;c0-7.608,3.927-14.677,10.385-18.697L256,296.071l58.031,36.121c5.922,3.686,9.522,10.167,9.522,17.143v126.882&#10;&#9;&#9;&#9;&#9;C323.553,483.282,317.825,489.011,310.759,489.011z"/>
			<path style="fill:#2ED1E2;" d="M323.55,349.339v126.88c0,7.06-5.72,12.79-12.79,12.79h-26.07c7.07,0,12.8-5.73,12.8-12.79&#10;&#9;&#9;&#9;&#9;v-126.88c0-6.98-3.6-13.46-9.52-17.15l-45-28.01l13.03-8.11l58.03,36.12C319.95,335.879,323.55,342.359,323.55,349.339z"/>
			<path style="fill:#6BD9E7;" d="M491.706,489.011H382.188c-7.066,0-12.794-5.728-12.794-12.794V349.335&#10;&#9;&#9;&#9;&#9;c0-6.975,3.6-13.457,9.522-17.143l58.031-36.121l58.031,36.121c5.922,3.686,9.522,10.167,9.522,17.143v126.882&#10;&#9;&#9;&#9;&#9;C504.5,483.282,498.772,489.011,491.706,489.011z"/>
			<path style="fill:#2ED1E2;" d="M504.5,349.339v126.88c0,7.06-5.73,12.79-12.79,12.79h-26.07c7.07,0,12.8-5.73,12.8-12.79v-126.88&#10;&#9;&#9;&#9;&#9;c0-6.98-3.6-13.46-9.53-17.15l-44.99-28.01l13.03-8.11l58.03,36.12C500.9,335.879,504.5,342.359,504.5,349.339z"/>
		</g>
		<path style="fill:#978ECB;" d="M96.616,430.708H53.491c-6.83,0-12.367-5.537-12.367-12.367v-43.125&#10;&#9;&#9;&#9;c0-6.83,5.537-12.367,12.367-12.367h43.125c6.83,0,12.367,5.537,12.367,12.367v43.125&#10;&#9;&#9;&#9;C108.983,425.172,103.446,430.708,96.616,430.708z"/>
		<path style="fill:#8379C1;" d="M108.98,375.219v43.12c0,6.83-5.53,12.37-12.36,12.37H71.35c6.83,0,12.37-5.54,12.37-12.37v-43.12&#10;&#9;&#9;&#9;c0-6.83-5.54-12.37-12.37-12.37h25.27C103.45,362.85,108.98,368.39,108.98,375.219z"/>
		<path style="fill:#FE76A8;" d="M256,433.597L256,433.597c-18.739,0-33.929-15.191-33.929-33.929v0&#10;&#9;&#9;&#9;c0-18.739,15.191-33.929,33.929-33.929h0c18.739,0,33.929,15.191,33.929,33.929v0C289.929,418.406,274.739,433.597,256,433.597z"/>
		<path style="fill:#FE5694;" d="M289.93,399.669c0,9.37-3.8,17.85-9.94,23.99c-6.14,6.14-14.62,9.94-23.99,9.94&#10;&#9;&#9;&#9;c-4.46,0-8.73-0.86-12.63-2.43c4.29-1.72,8.15-4.3,11.36-7.51c6.14-6.14,9.94-14.62,9.94-23.99c0-9.37-3.8-17.85-9.94-23.99&#10;&#9;&#9;&#9;c-3.21-3.21-7.07-5.79-11.36-7.51c3.9-1.57,8.17-2.43,12.63-2.43c9.37,0,17.85,3.8,23.99,9.94&#10;&#9;&#9;&#9;C286.13,381.82,289.93,390.299,289.93,399.669z"/>
		<path style="fill:#FFE177;" d="M458.805,430.708h-43.717c-7.928,0-14.354-6.81-14.354-15.211v0c0-3.031,0.855-5.993,2.454-8.507&#10;&#9;&#9;&#9;l24.934-39.169c4.22-6.63,13.43-6.63,17.65,0l24.934,39.169c1.6,2.513,2.454,5.475,2.454,8.507v0&#10;&#9;&#9;&#9;C473.159,423.898,466.733,430.708,458.805,430.708z"/>
		<path style="fill:#FFD15B;" d="M473.16,415.499c0,4.2-1.61,8-4.2,10.76c-2.6,2.75-6.19,4.45-10.15,4.45h-25.27&#10;&#9;&#9;&#9;c3.96,0,7.56-1.7,10.15-4.45c2.6-2.76,4.21-6.56,4.21-10.76c0-3.03-0.86-6-2.46-8.51l-21.12-33.19l3.8-5.98&#10;&#9;&#9;&#9;c4.22-6.63,13.43-6.63,17.65,0l24.94,39.17C472.3,409.499,473.16,412.469,473.16,415.499z"/>
	</g>
	<g>
		<g>
			<path style="fill:none;stroke:#000000;stroke-width:15;stroke-linecap:round;stroke-linejoin:round;stroke-miterlimit:10;" d="&#10;&#9;&#9;&#9;&#9;M290.26,144.519v14.12c0,7.67-6.22,13.88-13.89,13.88h-73.21c-7.67,0-13.88-6.21-13.88-13.88v-93.77&#10;&#9;&#9;&#9;&#9;c0-7.67,6.21-13.88,13.88-13.88h18.58"/>
			<path style="fill:none;stroke:#000000;stroke-width:15;stroke-linecap:round;stroke-linejoin:round;stroke-miterlimit:10;" d="&#10;&#9;&#9;&#9;&#9;M322.72,61.839v68.8c0,7.67-6.21,13.88-13.88,13.88h-18.58v-54.68l-28.74-38.85h-39.78V36.87c0-7.67,6.22-13.88,13.89-13.88&#10;&#9;&#9;&#9;&#9;h58.36L322.72,61.839z"/>
			
				<line style="fill:none;stroke:#000000;stroke-width:15;stroke-linecap:round;stroke-linejoin:round;stroke-miterlimit:10;" x1="216.277" y1="77.989" x2="216.277" y2="77.989"/>
			
				<line style="fill:none;stroke:#000000;stroke-width:15;stroke-linecap:round;stroke-linejoin:round;stroke-miterlimit:10;" x1="263.257" y1="145.522" x2="216.277" y2="145.522"/>
			
				<line style="fill:none;stroke:#000000;stroke-width:15;stroke-linecap:round;stroke-linejoin:round;stroke-miterlimit:10;" x1="263.257" y1="118.344" x2="216.277" y2="118.344"/>
		</g>
		<g>
			<path style="fill:none;stroke:#000000;stroke-width:15;stroke-linecap:round;stroke-linejoin:round;stroke-miterlimit:10;" d="&#10;&#9;&#9;&#9;&#9;M142.607,430.708v45.508c0,7.066-5.728,12.794-12.794,12.794H20.294c-7.066,0-12.794-5.728-12.794-12.794V349.335&#10;&#9;&#9;&#9;&#9;c0-6.975,3.6-13.457,9.522-17.143l58.031-36.121l58.031,36.121c5.922,3.686,9.522,10.167,9.522,17.143v46.237"/>
			<path style="fill:none;stroke:#000000;stroke-width:15;stroke-linecap:round;stroke-linejoin:round;stroke-miterlimit:10;" d="&#10;&#9;&#9;&#9;&#9;M310.759,489.011H201.241c-7.066,0-12.794-5.728-12.794-12.794V350.352c0-7.608,3.927-14.677,10.385-18.697L256,296.071&#10;&#9;&#9;&#9;&#9;l58.031,36.121c5.922,3.686,9.522,10.167,9.522,17.143v126.882C323.553,483.282,317.825,489.011,310.759,489.011z"/>
			<path style="fill:none;stroke:#000000;stroke-width:15;stroke-linecap:round;stroke-linejoin:round;stroke-miterlimit:10;" d="&#10;&#9;&#9;&#9;&#9;M436.947,296.071l58.031,36.121c5.922,3.686,9.522,10.167,9.522,17.143v126.882c0,7.066-5.728,12.794-12.794,12.794H382.188&#10;&#9;&#9;&#9;&#9;c-7.066,0-12.794-5.728-12.794-12.794V349.335c0-6.975,3.6-13.457,9.522-17.143l28.295-17.612"/>
		</g>
		<path style="fill:none;stroke:#000000;stroke-width:15;stroke-linecap:round;stroke-linejoin:round;stroke-miterlimit:10;" d="&#10;&#9;&#9;&#9;M96.616,430.708H53.491c-6.83,0-12.367-5.537-12.367-12.367v-43.125c0-6.83,5.537-12.367,12.367-12.367h43.125&#10;&#9;&#9;&#9;c6.83,0,12.367,5.537,12.367,12.367v43.125C108.983,425.172,103.446,430.708,96.616,430.708z"/>
		<path style="fill:none;stroke:#000000;stroke-width:15;stroke-linecap:round;stroke-linejoin:round;stroke-miterlimit:10;" d="&#10;&#9;&#9;&#9;M256,433.597L256,433.597c-18.739,0-33.929-15.191-33.929-33.929v0c0-18.739,15.191-33.929,33.929-33.929h0&#10;&#9;&#9;&#9;c18.739,0,33.929,15.191,33.929,33.929v0C289.929,418.406,274.739,433.597,256,433.597z"/>
		<path style="fill:none;stroke:#000000;stroke-width:15;stroke-linecap:round;stroke-linejoin:round;stroke-miterlimit:10;" d="&#10;&#9;&#9;&#9;M458.805,430.708h-43.717c-7.928,0-14.354-6.81-14.354-15.211v0c0-3.031,0.855-5.993,2.454-8.507l24.934-39.169&#10;&#9;&#9;&#9;c4.22-6.63,13.43-6.63,17.65,0l24.934,39.169c1.6,2.513,2.454,5.475,2.454,8.507v0&#10;&#9;&#9;&#9;C473.159,423.898,466.733,430.708,458.805,430.708z"/>
		
			<line style="fill:none;stroke:#000000;stroke-width:15;stroke-linecap:round;stroke-linejoin:round;stroke-miterlimit:10;" x1="58.976" y1="458.28" x2="91.131" y2="458.28"/>
		
			<line style="fill:none;stroke:#000000;stroke-width:15;stroke-linecap:round;stroke-linejoin:round;stroke-miterlimit:10;" x1="240.197" y1="458.28" x2="272.352" y2="458.28"/>
		
			<line style="fill:none;stroke:#000000;stroke-width:15;stroke-linecap:round;stroke-linejoin:round;stroke-miterlimit:10;" x1="419.395" y1="458.28" x2="451.549" y2="458.28"/>
		
			<polyline style="fill:none;stroke:#000000;stroke-width:15;stroke-linecap:round;stroke-linejoin:round;stroke-miterlimit:10;" points="&#10;&#9;&#9;&#9;75.053,296.071 75.053,234.96 436.947,234.96 436.947,296.071 &#9;&#9;"/>
		
			<line style="fill:none;stroke:#000000;stroke-width:15;stroke-linecap:round;stroke-linejoin:round;stroke-miterlimit:10;" x1="256" y1="296.071" x2="256" y2="172.522"/>
	</g>
</g>
<g>
</g>
<g>
</g>
<g>
</g>
<g>
</g>
<g>
</g>
<g>
</g>
<g>
</g>
<g>
</g>
<g>
</g>
<g>
</g>
<g>
</g>
<g>
</g>
<g>
</g>
<g>
</g>
<g>
</g>
</svg>