<svg version="1.1" id="Layer_1" xmlns="http://www.w3.org/2000/svg" xmlns:xlink="http://www.w3.org/1999/xlink" x="0px" y="0px" viewBox="0 0 512.001 512.001" style="enable-background:new 0 0 512.001 512.001;" xml:space="preserve">
<g>
	<path style="fill:#80D261;" d="M7.502,152.283v21.062c0,2.761,2.239,5,5,5h181.375v-31.062H12.502&#10;&#9;&#9;C9.74,147.283,7.502,149.521,7.502,152.283z"/>
	<path style="fill:#D4F2F6;" d="M334.626,7.504c-93.365-0.518-170.421,74.915-171.793,168.271&#10;&#9;&#9;c-0.446,30.33,7.014,58.88,20.45,83.724c5.264,9.733,3.53,21.762-4.295,29.586l-14.842,14.842l14.199,29.73l29.73,14.199&#10;&#9;&#9;l14.842-14.842c7.825-7.825,19.853-9.559,29.586-4.295c24.844,13.436,53.394,20.896,83.724,20.45&#10;&#9;&#9;c93.357-1.372,168.789-78.428,168.271-171.793C503.98,83.79,428.213,8.023,334.626,7.504z"/>
	<path style="fill:#6BD9E7;" d="M209.408,178.345c0,68.621,55.629,124.25,124.25,124.25c63.362,0,115.645-47.428,123.288-108.719&#10;&#9;&#9;l-45.631-15.531l-31.062-46.594h-31.062l-31.062,93.188h-31.063l-31.062-62.125L209.408,178.345z"/>
	<path style="fill:#6BD9E7;" d="M411.314,178.345l-31.062-46.594h-31.062l-31.062,93.188h-31.063l-15.531-62.125l-58.21-15.531&#10;&#9;&#9;c13.793-53.59,62.439-93.188,120.335-93.188c63.362,0,115.645,47.428,123.288,108.719L411.314,178.345z"/>
	<path style="fill:#02C7DD;" d="M422.039,181.996c-12.182,55.697-61.75,97.6-121.381,97.6c-19.172,0-37.33-4.343-53.544-12.097&#10;&#9;&#9;c22.373,21.723,52.896,35.097,86.544,35.097c63.362,0,115.645-47.428,123.288-108.719L422.039,181.996z"/>
	<path style="fill:#02C7DD;" d="M424.908,155.345c0,6.408-0.486,12.706-1.424,18.858l33.461-11.389&#10;&#9;&#9;c-5.33-42.745-32.373-78.747-69.744-96.621C410.486,88.817,424.908,120.462,424.908,155.345z"/>
	<path style="fill:#017297;" d="M198.213,377.444l9.862-29.587l-43.929-43.929l-29.587,9.862c-2.209,0.736-4.217,1.977-5.863,3.624&#10;&#9;&#9;L14.824,431.286c-9.763,9.763-9.763,25.592,0,35.355l30.538,30.538c9.763,9.763,25.592,9.763,35.355,0L194.59,383.307&#10;&#9;&#9;C196.236,381.661,197.477,379.653,198.213,377.444z"/>
	<path style="fill:#80D261;" d="M256.002,183.345v32.125c0,13.807,11.193,25,25,25h43.188c13.807,0,25-11.193,25-25v-63.188&#10;&#9;&#9;c0-2.761,2.239-5,5-5h21.062c2.761,0,5,2.239,5,5v16.594c0,13.807,11.193,25,25,25h51.694c0.635-5.088,0.962-10.271,0.962-15.531&#10;&#9;&#9;s-0.327-10.443-0.962-15.531h-40.632c-2.761,0-5-2.239-5-5V141.22c0-13.807-11.193-25-25-25h-43.188c-13.807,0-25,11.193-25,25&#10;&#9;&#9;v63.188c0,2.761-2.239,5-5,5h-21.063c-2.761,0-5-2.239-5-5v-32.125c0-13.807-11.193-25-25-25h-48.742&#10;&#9;&#9;c-2.555,9.928-3.914,20.337-3.914,31.062h41.594C253.763,178.345,256.002,180.584,256.002,183.345z"/>
	<path style="fill:#68CA44;" d="M456.946,162.814h-32.26c-0.64,10.775-2.655,21.188-5.874,31.062h38.134&#10;&#9;&#9;c0.635-5.088,0.962-10.271,0.962-15.531S457.581,167.902,456.946,162.814z"/>
	<path style="fill:#FFC344;" d="M377.284,263.501l-72.656,125.844c-5.773,10,1.443,22.5,12.99,22.5H462.93&#10;&#9;&#9;c11.547,0,18.764-12.5,12.99-22.5l-72.656-125.844C397.491,253.501,383.057,253.501,377.284,263.501z"/>
	<path style="fill:none;stroke:#000000;stroke-width:15;stroke-linecap:round;stroke-linejoin:round;stroke-miterlimit:10;" d="&#10;&#9;&#9;M165.652,147.283H12.502c-2.761,0-5,2.239-5,5v21.062c0,2.761,2.239,5,5,5h150.312"/>
	<path style="fill:none;stroke:#000000;stroke-width:15;stroke-linecap:round;stroke-linejoin:round;stroke-miterlimit:10;" d="&#10;&#9;&#9;M245.775,31.992c25.995-15.698,56.441-24.67,88.852-24.49c93.59,0.52,169.35,76.29,169.87,169.87&#10;&#9;&#9;c0.32,56.93-27.61,107.8-70.62,139.15"/>
	<path style="fill:none;stroke:#000000;stroke-width:15;stroke-linecap:round;stroke-linejoin:round;stroke-miterlimit:10;" d="&#10;&#9;&#9;M164.147,303.923l14.84-14.84c7.83-7.82,9.56-19.85,4.3-29.58c-13.44-24.85-20.9-53.4-20.45-83.73&#10;&#9;&#9;c0.706-48.112,21.515-91.467,54.301-122.117"/>
	<path style="fill:none;stroke:#000000;stroke-width:15;stroke-linecap:round;stroke-linejoin:round;stroke-miterlimit:10;" d="&#10;&#9;&#9;M208.077,347.853l14.84-14.84c7.83-7.82,19.85-9.56,29.59-4.29c22.55,12.19,48.15,19.46,75.36,20.37"/>
	<path style="fill:none;stroke:#000000;stroke-width:15;stroke-linecap:round;stroke-linejoin:round;stroke-miterlimit:10;" d="&#10;&#9;&#9;M62.153,383.956l-47.329,47.329c-9.763,9.763-9.763,25.592,0,35.355l30.538,30.538c9.763,9.763,25.592,9.763,35.355,0&#10;&#9;&#9;L194.59,383.307c1.647-1.647,2.887-3.654,3.624-5.863l9.862-29.587l-43.929-43.929l-29.587,9.862&#10;&#9;&#9;c-2.209,0.736-4.217,1.977-5.863,3.624l-41.448,41.448"/>
	
		<line style="fill:none;stroke:#000000;stroke-width:15;stroke-linecap:round;stroke-linejoin:round;stroke-miterlimit:10;" x1="153.164" y1="336.874" x2="175.129" y2="358.839"/>
	<path style="fill:none;stroke:#000000;stroke-width:15;stroke-linecap:round;stroke-linejoin:round;stroke-miterlimit:10;" d="&#10;&#9;&#9;M349.189,156.111v-3.828c0-2.761,2.239-5,5-5h21.062c2.761,0,5,2.239,5,5v16.594c0,13.807,11.193,25,25,25h51.694&#10;&#9;&#9;c0.635-5.088,0.962-10.271,0.962-15.531s-0.327-10.443-0.962-15.531h-40.632c-2.761,0-5-2.239-5-5V141.22c0-13.807-11.193-25-25-25&#10;&#9;&#9;h-43.188c-13.807,0-25,11.193-25,25v63.188c0,2.761-2.239,5-5,5h-21.063c-2.761,0-5-2.239-5-5v-32.125c0-13.807-11.193-25-25-25&#10;&#9;&#9;h-48.742c-2.555,9.928-3.914,20.337-3.914,31.062h41.594c2.761,0,5,2.239,5,5v32.125c0,13.807,11.193,25,25,25h43.188&#10;&#9;&#9;c13.807,0,25-11.193,25-25v-23.359"/>
	<path style="fill:none;stroke:#000000;stroke-width:15;stroke-linecap:round;stroke-linejoin:round;stroke-miterlimit:10;" d="&#10;&#9;&#9;M410.477,275.993c25.05-19.72,42.33-48.88,46.47-82.12"/>
	<path style="fill:none;stroke:#000000;stroke-width:15;stroke-linecap:round;stroke-linejoin:round;stroke-miterlimit:10;" d="&#10;&#9;&#9;M209.407,178.343c0,68.62,55.63,124.25,124.25,124.25c7.58,0,15-0.68,22.21-1.99"/>
	<path style="fill:none;stroke:#000000;stroke-width:15;stroke-linecap:round;stroke-linejoin:round;stroke-miterlimit:10;" d="&#10;&#9;&#9;M213.323,147.283c13.793-53.59,62.439-93.188,120.335-93.188c63.362,0,115.645,47.428,123.288,108.719"/>
	<path style="fill:none;stroke:#000000;stroke-width:15;stroke-linecap:round;stroke-linejoin:round;stroke-miterlimit:10;" d="&#10;&#9;&#9;M377.284,263.501l-72.656,125.844c-5.773,10,1.443,22.5,12.99,22.5H462.93c11.547,0,18.764-12.5,12.99-22.5l-72.656-125.844&#10;&#9;&#9;C397.491,253.501,383.057,253.501,377.284,263.501z"/>
	
		<line style="fill:none;stroke:#000000;stroke-width:15;stroke-linecap:round;stroke-linejoin:round;stroke-miterlimit:10;" x1="390.274" y1="318.658" x2="390.274" y2="349.72"/>
	<g>
		<g>
			
				<line style="fill:none;stroke:#000000;stroke-width:15;stroke-linecap:round;stroke-linejoin:round;stroke-miterlimit:10;" x1="390.274" y1="380.927" x2="390.274" y2="380.927"/>
		</g>
	</g>
</g>
<g>
</g>
<g>
</g>
<g>
</g>
<g>
</g>
<g>
</g>
<g>
</g>
<g>
</g>
<g>
</g>
<g>
</g>
<g>
</g>
<g>
</g>
<g>
</g>
<g>
</g>
<g>
</g>
<g>
</g>
</svg>