<svg height="512" viewBox="0 0 64 64" width="512" xmlns="http://www.w3.org/2000/svg"><g id="Icon"><path d="m28 55v4a3 3 0 0 0 3 3h2a3 3 0 0 0 3-3v-4z" fill="#c62828"/><path d="m54.28711 26.499c-4.6015-.43438-15.89038-1.27594-22.28717.15979-6.39722-1.43524-17.6861-.59417-22.287-.15979a2.98543 2.98543 0 0 0 -2.71294 2.98635v27.74951a3.017 3.017 0 0 0 3.26855 2.9878c4.48047-.41065 15.54541-1.21436 21.501.1958a1.063 1.063 0 0 0 .46094 0c5.95459-1.41016 17.02-.606 21.50146-.19532a3.01782 3.01782 0 0 0 3.26805-2.98828v-27.74951a2.98543 2.98543 0 0 0 -2.71289-2.98635z" fill="#e53935"/><path d="m51.42529 24.3418-.00049-.00049a49.12079 49.12079 0 0 0 -19.42474.15155 49.08217 49.08217 0 0 0 -19.42486-.15155l-.00049.00049a1.98872 1.98872 0 0 0 -1.57471 1.9541v28.46582a2.00789 2.00789 0 0 0 2.19971 1.98974c3.00439-.313 13.2207-1.23 18.55908.09717a1.1139 1.1139 0 0 0 .48242 0c5.33691-1.32568 15.55469-.40967 18.55957-.09717a2.00561 2.00561 0 0 0 2.19922-1.98974v-28.46582a1.98872 1.98872 0 0 0 -1.57471-1.9541z" fill="#eee"/><g fill="#424242"><path d="m48.69043 45.794a37.31037 37.31037 0 0 0 -13.08057 0 .99992.99992 0 1 0 .39258 1.96093 35.94321 35.94321 0 0 1 12.2959 0 .99987.99987 0 0 0 .39209-1.96093z"/><path d="m48.69043 39.48242a37.29759 37.29759 0 0 0 -13.08057 0 .99993.99993 0 0 0 .39258 1.96094 35.92878 35.92878 0 0 1 12.2959 0 .99988.99988 0 0 0 .39209-1.96094z"/><path d="m35.80518 35.08643a37.00891 37.00891 0 0 1 12.49316-.01954.99987.99987 0 0 0 .39209-1.96093 37.33734 37.33734 0 0 0 -13.08057 0 1 1 0 0 0 .19532 1.98047z"/><path d="m28.39014 45.794a37.30789 37.30789 0 0 0 -13.08057 0 .99987.99987 0 0 0 .39209 1.96093 35.95384 35.95384 0 0 1 12.2959 0 .99992.99992 0 1 0 .39258-1.96093z"/><path d="m28.39014 39.48242a37.25518 37.25518 0 0 0 -13.08057 0 .99993.99993 0 0 0 .39258 1.96094 35.79365 35.79365 0 0 1 12.29541 0 .99993.99993 0 1 0 .39258-1.96094z"/><path d="m28.39014 33.106a37.29484 37.29484 0 0 0 -13.08057 0 .99987.99987 0 0 0 .39209 1.96093 35.968 35.968 0 0 1 12.2959 0 .99992.99992 0 1 0 .39258-1.96093z"/></g><path d="m33 24.3v32.38c-.26.05-.52.11-.76.17h-.01c-.04.01-.09.01-.13.02-.03 0-.06.01-.1.01s-.07-.01-.1-.01c-.04-.01-.09-.01-.13-.02h-.01c-.24-.06-.5-.12-.76-.17v-32.38c.33.06.66.12 1 .19.34-.07.67-.13 1-.19z" fill="#bdbdbd"/><path d="m41.98535 5.80615a15.00108 15.00108 0 0 0 -24.84473 9.11377 14.92528 14.92528 0 0 0 9.48292 16.06983l3.64306 6.06591a1.9806 1.9806 0 0 0 1.71387.97071h.019a1.98311 1.98311 0 0 0 1.71582-1.00293l3.41113-5.93457a14.99348 14.99348 0 0 0 4.85893-25.28272z" fill="#ff8f00"/><path d="m34.14258 13.06738a2.99553 2.99553 0 0 0 -.01558-4.17871 3.03175 3.03175 0 0 0 -4.24707-.00781 2.96588 2.96588 0 0 0 -.01611 4.19434 2.93542 2.93542 0 0 0 4.27876-.00782z" fill="#eee"/><path d="m33.86426 15.417c-1.50794-.93866-4.98865-.2843-4.86426 1.689v8.9648c.015 2.82446 5.96082 2.78168 6 0v-8.9648a1.86386 1.86386 0 0 0 -1.13574-1.689z" fill="#eee"/></g></svg>